<?xml version="1.0" encoding="UTF-8"?>
<svg xmlns="http://www.w3.org/2000/svg" version="1.1" viewBox="0 0 28 33">
  <defs>
    <style>
      .cls-1 {
        fill: none;
        stroke-width: 2.5px;
      }

      .cls-1, .cls-2 {
        stroke: #000;
      }

      .cls-2 {
        fill: #000;
        stroke-width: 2px;
      }

      .cls-3 {
        display: none;
      }
    </style>
  </defs>
  <g id="Layer_1" data-name="Layer 1" class="cls-3">
    <g id="Lager_1" data-name="Lager 1">
      <path id="Vector" class="cls-2" d="M20,6v.8h7v25.2H1V6.8h6.8l.2-.8c.5-2.8,3-5,6-5s5.5,2.2,6,5ZM18.7,6.8h1.3l-.3-1.2c-.7-2.5-3-4.3-5.7-4.3s-5,1.8-5.6,4.3l-.3,1.2h10.6ZM7.9,8.1v-1H1.3v24.7h25.4v-1h0V7.1h-6.6v1M19.8,8.1v-1h-11.6v1"/>
    </g>
  </g>
  <g id="Layer_2" data-name="Layer 2">
    <rect class="cls-1" x="1.3" y="6.8" width="25.4" height="24.9"/>
    <path class="cls-1" d="M8.4,6.9c0-3.1,2.5-5.6,5.6-5.6s5.6,2.5,5.6,5.6"/>
  </g>
</svg>