<?xml version="1.0" encoding="UTF-8"?>
<svg id="Layer_1" xmlns="http://www.w3.org/2000/svg" version="1.1" viewBox="0 0 28 33">
  <!-- Generator: Adobe Illustrator 29.5.1, SVG Export Plug-In . SVG Version: 2.1.0 Build 141)  -->
  <defs>
    <style>
      .st0 {
        stroke-width: 2px;
      }

      .st0, .st1 {
        stroke: #000;
      }

      .st1 {
        fill: none;
        stroke-width: 2.5px;
      }

      .st2 {
        display: none;
      }
    </style>
  </defs>
  <g id="Layer_11" class="st2">
    <g id="Lager_1">
      <path id="Vector" class="st0" d="M20,6v.8h7v25.2H1V6.8h6.8l.2-.8c.5-2.8,3-5,6-5s5.5,2.2,6,5ZM18.7,6.8h1.3l-.3-1.2c-.7-2.5-3-4.3-5.7-4.3s-5,1.8-5.6,4.3l-.3,1.2h10.6ZM7.9,8.1v-1H1.3v24.7h25.4v-1h0V7.1h-6.6v1M19.8,8.1v-1h-11.6v1"/>
    </g>
  </g>
  <g id="Layer_2">
    <path d="M28,33H0V7.5h27.9v25.4h.1ZM4.8,28.1h18.3v-15.6H4.8v15.6Z"/>
    <path class="st1" d="M8.4,6.9c0-3.1,2.5-5.6,5.6-5.6s5.6,2.5,5.6,5.6"/>
  </g>
  <line class="st1" x1="8.4" y1="6.9" x2="8.4" y2="8"/>
  <line class="st1" x1="19.6" y1="6.9" x2="19.6" y2="8.5"/>
  <circle cx="14" cy="20.2" r="4.5"/>
</svg>