<?xml version="1.0" encoding="utf-8"?>
<!-- Generator: Adobe Illustrator 28.0.0, SVG Export Plug-In . SVG Version: 6.00 Build 0)  -->
<svg version="1.1" id="Layer_1" xmlns="http://www.w3.org/2000/svg" xmlns:xlink="http://www.w3.org/1999/xlink" x="0px" y="0px"
	 viewBox="0 0 28 33" style="enable-background:new 0 0 28 33;" xml:space="preserve">
<style type="text/css">
	.st0{clip-path:url(#SVGID_00000048468741493776060680000017774268750551104673_);}
	.st1{stroke:#000000;stroke-width:2;}
</style>
<g>
	<defs>
		<rect id="SVGID_1_" y="0" width="28" height="33"/>
	</defs>
	<clipPath id="SVGID_00000108282803489546495570000003440525520761480609_">
		<use xlink:href="#SVGID_1_"  style="overflow:visible;"/>
	</clipPath>
	<g id="Lager_1" style="clip-path:url(#SVGID_00000108282803489546495570000003440525520761480609_);">
		<path id="Vector" class="st1" d="M20,6l0.1,0.8H21h6V32H1V6.8h6h0.8L8,6c0.5-2.8,3-5,6-5C17,1,19.5,3.2,20,6z M18.7,6.8h1.3
			l-0.3-1.2C19,3.1,16.7,1.3,14,1.3S9,3.1,8.4,5.6L8.1,6.8h1.3H18.7z M7.9,8.1v-1h-1H2.3h-1v1v22.7v1h1h23.4h1v-1v0V8.1v-1h-1h-4.6
			h-1v1 M19.8,8.1v-1h-1H9.2h-1v1"/>
	</g>
</g>
<rect x="1.3" y="7.1" class="st1" width="25.7" height="24.9"/>
</svg>
