<svg width="47" height="57" viewBox="0 0 47 57" fill="none" xmlns="http://www.w3.org/2000/svg">
<path d="M25.0577 0V5.52422H35.7432V0H25.0577ZM11.1933 0V5.52422H21.8788V0H11.1933ZM10.1764 33.0168C10.1764 25.6075 16.2181 19.4333 23.4683 19.4333C30.7185 19.4333 36.6966 25.6075 36.6966 33.0168C36.6966 40.4261 30.7148 46.6015 23.4683 46.6015C16.2217 46.6015 10.1764 40.4273 10.1764 33.0168ZM6.23293e-06 33.0168C-0.00224109 36.167 0.60325 39.2867 1.78184 42.1975C2.96044 45.1083 4.68901 47.7531 6.86869 49.9806C9.04837 52.2081 11.6364 53.9746 14.4847 55.1791C17.333 56.3835 20.3857 57.0023 23.4683 57C36.5062 57 47 46.2709 47 33.0168C47 19.7627 36.5013 8.96874 23.4683 8.96874C10.4987 8.96874 6.23293e-06 19.7589 6.23293e-06 33.0168Z" fill="#141414"/>
</svg>
