<svg id="Lager_1" data-name="Lager 1" xmlns="http://www.w3.org/2000/svg" xmlns:xlink="http://www.w3.org/1999/xlink" viewBox="0 0 42.52 62.25"><defs><style>.cls-1{fill:none;}.cls-2{clip-path:url(#clip-path);}.cls-3{fill:#fff;}.cls-4{fill:#c2151c;}</style><clipPath id="clip-path" transform="translate(0 0.25)"><rect class="cls-1" y="-0.25" width="42.52" height="62.25"/></clipPath></defs><title>logo</title><rect width="42.52" height="62.25"/><g class="cls-2"><path class="cls-3" d="M8.76,25.18a12.5,12.5,0,1,0,12.5-12.5,12.5,12.5,0,0,0-12.5,12.5" transform="translate(0 0.25)"/><path class="cls-4" d="M13.88,25.18a7.37,7.37,0,1,0,7.37-7.37,7.37,7.37,0,0,0-7.37,7.38" transform="translate(0 0.25)"/></g><rect class="cls-3" x="15.92" y="8.66" width="4.49" height="2.56"/><rect class="cls-3" x="22.11" y="8.66" width="4.49" height="2.56"/><g class="cls-2"><path class="cls-3" d="M12.36,41.24h1.45v1.25H12.36Zm-2.21,0H11.6v1.25H10.15ZM12,49.77c1.51,0,2.08-1.29,2.08-2.56s-.57-2.63-2.08-2.63-2.08,1.29-2.08,2.63.57,2.56,2.08,2.56m0-6.61c2.37,0,3.76,1.77,3.76,4a3.69,3.69,0,0,1-3.76,4,3.7,3.7,0,0,1-3.77-4,3.71,3.71,0,0,1,3.77-4" transform="translate(0 0.25)"/><path class="cls-3" d="M16.67,45.46h1.45v1h0a2,2,0,0,1,1.77-1.18,1.12,1.12,0,0,1,.33.05v1.41a2.73,2.73,0,0,0-.55-.05c-1.12,0-1.5.81-1.5,1.78V51H16.67Z" transform="translate(0 0.25)"/><path class="cls-3" d="M22.08,49.2c0,.67.57.93,1.17.93.44,0,1-.17,1-.71s-.63-.62-1.73-.86c-.88-.19-1.76-.5-1.76-1.48,0-1.42,1.22-1.78,2.41-1.78s2.33.41,2.45,1.77H24.18c0-.59-.49-.75-1-.75-.34,0-.85.06-.85.51s.86.62,1.73.83,1.76.53,1.76,1.56c0,1.46-1.26,1.93-2.53,1.93s-2.54-.48-2.6-2Z" transform="translate(0 0.25)"/><path class="cls-3" d="M28.11,44.6H26.59V43.35h1.52Zm-2.44,6.76a1,1,0,0,0,.33,0c.31,0,.59-.08.59-.49V45.46h1.52V51c0,1.14-.42,1.67-2,1.67a3.87,3.87,0,0,1-.49,0Z" transform="translate(0 0.25)"/><path class="cls-3" d="M31.94,43.35h1.45V44.6H31.94ZM31.56,50c1,0,1.35-.89,1.35-1.77s-.31-1.78-1.35-1.78-1.34.89-1.34,1.78S30.53,50,31.56,50m-1.82-6.66h1.45V44.6H29.73Zm1.82,2a2.92,2.92,0,1,1-2.87,2.93,2.72,2.72,0,0,1,2.87-2.93" transform="translate(0 0.25)"/></g></svg>