<svg width="21" height="21" viewBox="0 0 21 21" fill="none" xmlns="http://www.w3.org/2000/svg">
<path d="M10.5 0C4.70039 0 0 4.70039 0 10.5C0 14.9502 2.76855 18.7482 6.67324 20.2781C6.58301 19.4455 6.49688 18.174 6.71016 17.2676C6.90293 16.4473 7.94063 12.0504 7.94063 12.0504C7.94063 12.0504 7.6248 11.4229 7.6248 10.4918C7.6248 9.03164 8.46973 7.94063 9.52383 7.94063C10.418 7.94063 10.8527 8.61328 10.8527 9.42129C10.8527 10.3236 10.2785 11.6689 9.9832 12.9158C9.73711 13.9617 10.5082 14.8148 11.5377 14.8148C13.4039 14.8148 14.8395 12.8461 14.8395 10.0078C14.8395 7.49355 13.0348 5.73398 10.4549 5.73398C7.46894 5.73398 5.71348 7.97344 5.71348 10.2908C5.71348 11.1932 6.06211 12.1611 6.49687 12.6861C6.58301 12.7887 6.59531 12.883 6.5707 12.9855C6.49277 13.3178 6.3123 14.0314 6.27949 14.175C6.23438 14.3678 6.12773 14.4088 5.92676 14.3145C4.61426 13.7033 3.79395 11.7879 3.79395 10.2457C3.79395 6.93164 6.20156 3.89238 10.7297 3.89238C14.3719 3.89238 17.202 6.48867 17.202 9.95859C17.202 13.5762 14.9215 16.4883 11.7551 16.4883C10.6928 16.4883 9.69199 15.9346 9.34746 15.2824C9.34746 15.2824 8.82246 17.2881 8.69531 17.7803C8.45742 18.6908 7.81758 19.8352 7.39102 20.5324C8.37539 20.8359 9.41719 21 10.5 21C16.2996 21 21 16.2996 21 10.5C21 4.70039 16.2996 0 10.5 0Z" fill="white"/>
</svg>
