<?xml version="1.0" encoding="utf-8"?>
<!-- Generator: Adobe Illustrator 28.0.0, SVG Export Plug-In . SVG Version: 6.00 Build 0)  -->
<svg version="1.1" id="Layer_1" xmlns="http://www.w3.org/2000/svg" xmlns:xlink="http://www.w3.org/1999/xlink" x="0px" y="0px"
	 viewBox="0 0 94.1 94.1" style="enable-background:new 0 0 94.1 94.1;" xml:space="preserve">
<style type="text/css">
	.st0{fill:#1B5B44;}
</style>
<g>
	<path class="st0" d="M16,27l-7.5-7.6l2.6-2.5l7.5,7.6c2.1,2.1,4.3,2.2,6.1,0.4c1.8-1.8,1.8-4-0.3-6.1l-7.5-7.6l2.6-2.5l7.5,7.6
		c3.3,3.3,3.3,7.6,0,10.8C23.5,30.4,19.3,30.4,16,27z"/>
	<path class="st0" d="M40,0.5l8.1,0c4.1,0,6.6,2.4,6.6,5.6c0,3.3-2.6,5.7-6.6,5.7l-4.5,0l0,6.7l-3.6,0L40,0.5z M47.8,8.7
		c2.2,0,3.4-1.1,3.4-2.7c0-1.5-1.2-2.6-3.4-2.6l-4.2,0l0,5.3L47.8,8.7z"/>
	<path class="st0" d="M66.1,13.7c3.4-3.6,8.8-4.6,12.8-0.9c3.4,3.1,3.6,7.1,1.7,10.2l-2.7-2.5c0.7-1.7,0.7-3.7-1.1-5.4
		c-2.4-2.2-5.8-1.4-8,1S66,22,68.4,24.2c1.9,1.7,3.9,1.5,5.5,0.7l2.7,2.5c-3,2.1-7,2.2-10.3-0.9C62.2,22.8,62.7,17.3,66.1,13.7z"/>
	<path class="st0" d="M82.5,44l10.7-6.9l0.2,4l-7.4,4.6l7.7,4l0.2,4l-11.2-6l-7,0.3l-0.1-3.6L82.5,44z"/>
	<path class="st0" d="M80.9,65.4c3.7,3.2,4.9,8.6,1.3,12.8c-3,3.5-6.9,3.8-10.2,2l2.4-2.8c1.7,0.6,3.7,0.6,5.4-1.3
		c2.2-2.5,1.2-5.9-1.2-8c-2.5-2.1-5.9-2.6-8.1-0.1c-1.7,1.9-1.4,3.9-0.5,5.5l-2.4,2.8c-2.2-3-2.4-6.9,0.5-10.4
		C71.7,61.8,77.2,62.2,80.9,65.4z"/>
	<path class="st0" d="M53.7,93.7l-3.6,0.1L49.8,79l-8.9,0.2l-0.1-3.2l12.5-0.3L53.7,93.7z"/>
	<path class="st0" d="M19.6,85.7L10,76.6l2.1-2.3l7,6.6l2.8-3l-6.8-6.4l2.1-2.3l6.8,6.4l3.1-3.3L20,65.6l2.1-2.3l9.8,9.2L19.6,85.7z
		"/>
	<path class="st0" d="M0.1,54.8l0-7c0-5.4,4-9.2,9-9.2s9,3.8,9,9.3l0,7L0.1,54.8z M15.1,48.3c0-3.7-2.5-6.1-5.9-6.2
		c-3.4,0-5.9,2.4-5.9,6.1l0,2.9l11.8,0L15.1,48.3z"/>
</g>
</svg>
