<?xml version="1.0" encoding="utf-8"?>
<!-- Generator: Adobe Illustrator 28.0.0, SVG Export Plug-In . SVG Version: 6.00 Build 0)  -->
<svg version="1.1" id="Layer_1" xmlns="http://www.w3.org/2000/svg" xmlns:xlink="http://www.w3.org/1999/xlink" x="0px" y="0px"
	 viewBox="0 0 533.1 533.1" style="enable-background:new 0 0 533.1 533.1;" xml:space="preserve">
<style type="text/css">
	.st0{fill:#1D1E1C;}
</style>
<g>
	<path class="st0" d="M88.4,129.8l-28.8-29l9.8-9.7L98.1,120c8,8,16.4,8.3,23.3,1.5c6.8-6.8,6.7-15.3-1.2-23.3L91.4,69.1l9.8-9.7
		l28.8,29c12.7,12.8,12.7,29-0.1,41.6C117.3,142.6,101.1,142.5,88.4,129.8z"/>
	<path class="st0" d="M239.2,3.4l31.2-0.1c15.9-0.1,25.4,9.1,25.4,21.4c0,12.5-9.9,21.7-25.3,21.8l-17.4,0.1l0.1,25.8l-13.8,0
		L239.2,3.4z M269.1,34.9c8.4,0,12.9-4.3,12.9-10.3c0-5.8-4.6-9.9-12.9-9.9l-16,0.1l0.1,20.2L269.1,34.9z"/>
	<path class="st0" d="M400.8,78.3c13.1-13.8,33.9-17.3,49.2-2.7c12.7,12.1,13.4,27.3,5.9,39.4l-10.1-9.7c2.8-6.5,3-14.2-4.1-20.9
		c-9.2-8.8-22.3-5.7-30.9,3.3c-8.6,9.1-11,22.3-1.8,31.1c7.1,6.7,14.7,6.1,21.1,3l10.1,9.7c-11.7,8-26.9,8.1-39.6-4
		C385.2,113,387.6,92.1,400.8,78.3z"/>
	<path class="st0" d="M488.3,262.1l42.3-24.5l-0.1,15.2l-29.2,16.3l28.9,16.7l-0.1,15.2l-41.9-25.1l-26.9-0.2l0.1-13.8L488.3,262.1z
		"/>
	<path class="st0" d="M449.1,409.9c13.2,13.7,15.7,34.6,0.4,49.3c-12.7,12.2-27.9,12.1-39.6,4.1l10.1-9.7c6.4,3.1,14,3.7,21.1-3.1
		c9.2-8.8,6.7-22-1.9-31.1c-8.7-9-21.8-12-31-3.2c-7,6.8-6.8,14.4-4,20.9l-10.1,9.7c-7.5-12.1-6.9-27.3,5.8-39.4
		C415.1,392.7,435.9,396.1,449.1,409.9z"/>
	<path class="st0" d="M287,531.2l-13.8-0.1l0.4-56.9l-34-0.2l0.1-12.1l47.8,0.3L287,531.2z"/>
	<path class="st0" d="M102,475l-36.7-35.2l8.3-8.7l26.8,25.6l10.9-11.4l-25.8-24.7l8.3-8.7l25.8,24.7l11.9-12.4l-27.3-26.2l8.3-8.7
		l37.3,35.7L102,475z"/>
	<path class="st0" d="M2.8,298.4l-0.2-26.7c-0.1-20.9,15-35.6,34.3-35.7s34.6,14.4,34.7,35.3l0.2,26.7L2.8,298.4z M59.8,273.3
		c-0.1-14.2-9.9-23.5-22.8-23.4c-12.9,0.1-22.6,9.5-22.5,23.7l0.1,11.1l45.3-0.3L59.8,273.3z"/>
</g>
<g>
	<path d="M266.5,333.1c12,0,23-2.9,33.1-8.8c10.1-5.9,18.1-13.9,24-24c5.9-10.1,8.8-21.1,8.8-33.1c0-12-2.9-23-8.8-33.1
		c-5.9-10.1-13.9-18.1-24-24c-10.1-5.9-21.1-8.8-33.1-8.8s-23,2.9-33.1,8.8c-10.1,5.9-18.1,13.9-24,24c-5.9,10.1-8.8,21.1-8.8,33.1
		c0,12,2.9,23,8.8,33.1c5.9,10.1,13.9,18.1,24,24C243.5,330.2,254.5,333.1,266.5,333.1L266.5,333.1L266.5,333.1z M266.5,305.1
		c-6.9,0-13.2-1.7-19-5.1c-5.8-3.4-10.4-8-13.8-13.8c-3.4-5.8-5.1-12.1-5.1-19c0-6.9,1.7-13.2,5.1-19c3.4-5.8,8-10.4,13.8-13.8
		c5.8-3.4,12.1-5.1,19-5.1c6.9,0,13.2,1.7,19,5.1c5.8,3.4,10.4,8,13.8,13.8c3.4,5.8,5.1,12.1,5.1,19c0,6.9-1.7,13.2-5.1,19
		c-3.4,5.8-8,10.4-13.8,13.8C279.7,303.4,273.4,305.1,266.5,305.1L266.5,305.1L266.5,305.1z M232.3,192.5h29.4v-15h-29.4V192.5
		L232.3,192.5z M271.1,192.5h29.4v-15h-29.4V192.5L271.1,192.5z"/>
</g>
</svg>
